<?xml version="1.0" encoding="utf-8"?>
<svg xmlns="http://www.w3.org/2000/svg" xmlns:xlink="http://www.w3.org/1999/xlink" style="margin: auto; background: none; display: block; shape-rendering: auto;" width="40px" height="40px" viewBox="0 0 100 100" preserveAspectRatio="xMidYMid">
    <g transform="rotate(0 50 50)">
    <rect x="45.5" y="8" rx="4" ry="4" width="9" height="20" fill="#0993f2">
        <animate attributeName="opacity" values="1;0" keyTimes="0;1" dur="0.5181347150259068s" begin="-0.46632124352331605s" repeatCount="indefinite"></animate>
    </rect>
    </g><g transform="rotate(36 50 50)">
    <rect x="45.5" y="8" rx="4" ry="4" width="9" height="20" fill="#0993f2">
        <animate attributeName="opacity" values="1;0" keyTimes="0;1" dur="0.5181347150259068s" begin="-0.41450777202072536s" repeatCount="indefinite"></animate>
    </rect>
    </g><g transform="rotate(72 50 50)">
    <rect x="45.5" y="8" rx="4" ry="4" width="9" height="20" fill="#0993f2">
        <animate attributeName="opacity" values="1;0" keyTimes="0;1" dur="0.5181347150259068s" begin="-0.3626943005181347s" repeatCount="indefinite"></animate>
    </rect>
    </g><g transform="rotate(108 50 50)">
    <rect x="45.5" y="8" rx="4" ry="4" width="9" height="20" fill="#0993f2">
        <animate attributeName="opacity" values="1;0" keyTimes="0;1" dur="0.5181347150259068s" begin="-0.31088082901554404s" repeatCount="indefinite"></animate>
    </rect>
    </g><g transform="rotate(144 50 50)">
    <rect x="45.5" y="8" rx="4" ry="4" width="9" height="20" fill="#0993f2">
        <animate attributeName="opacity" values="1;0" keyTimes="0;1" dur="0.5181347150259068s" begin="-0.25906735751295334s" repeatCount="indefinite"></animate>
    </rect>
    </g><g transform="rotate(180 50 50)">
    <rect x="45.5" y="8" rx="4" ry="4" width="9" height="20" fill="#0993f2">
        <animate attributeName="opacity" values="1;0" keyTimes="0;1" dur="0.5181347150259068s" begin="-0.20725388601036268s" repeatCount="indefinite"></animate>
    </rect>
    </g><g transform="rotate(216 50 50)">
    <rect x="45.5" y="8" rx="4" ry="4" width="9" height="20" fill="#0993f2">
        <animate attributeName="opacity" values="1;0" keyTimes="0;1" dur="0.5181347150259068s" begin="-0.15544041450777202s" repeatCount="indefinite"></animate>
    </rect>
    </g><g transform="rotate(252 50 50)">
    <rect x="45.5" y="8" rx="4" ry="4" width="9" height="20" fill="#0993f2">
        <animate attributeName="opacity" values="1;0" keyTimes="0;1" dur="0.5181347150259068s" begin="-0.10362694300518134s" repeatCount="indefinite"></animate>
    </rect>
    </g><g transform="rotate(288 50 50)">
    <rect x="45.5" y="8" rx="4" ry="4" width="9" height="20" fill="#0993f2">
        <animate attributeName="opacity" values="1;0" keyTimes="0;1" dur="0.5181347150259068s" begin="-0.05181347150259067s" repeatCount="indefinite"></animate>
    </rect>
    </g><g transform="rotate(324 50 50)">
    <rect x="45.5" y="8" rx="4" ry="4" width="9" height="20" fill="#0993f2">
        <animate attributeName="opacity" values="1;0" keyTimes="0;1" dur="0.5181347150259068s" begin="0s" repeatCount="indefinite"></animate>
    </rect>
    </g>
</svg>
