<?xml version="1.0" encoding="utf-8"?>
<svg version="1.1" fill="#0993F2" xmlns="http://www.w3.org/2000/svg" xmlns:xlink="http://www.w3.org/1999/xlink" x="0px" y="0px"
	 viewBox="0 0 24 24" style="enable-background:new 0 0 24 24;" xml:space="preserve">
<g id="uvF70a.tif">
	<g>
		<path class="st0" d="M20,21.63c-0.06-0.02-0.13-0.04-0.18-0.08c-0.42-0.27-0.83-0.55-1.24-0.81c-0.04-0.02-0.1-0.03-0.14-0.02
			c-0.1,0.03-0.2,0.08-0.3,0.12c-0.06,0.02-0.09,0.07-0.1,0.13c-0.06,0.31-0.12,0.62-0.19,0.93c-0.04,0.19-0.08,0.38-0.13,0.57
			c-0.03,0.12-0.14,0.21-0.26,0.21c-0.14,0.01-0.27,0.01-0.41,0.01c-0.46,0-0.93,0-1.39,0c-0.18,0-0.3-0.08-0.34-0.21
			c-0.04-0.13-0.06-0.27-0.09-0.4c-0.08-0.37-0.15-0.75-0.23-1.12c-0.01-0.04-0.05-0.08-0.09-0.1c-0.09-0.05-0.19-0.1-0.3-0.13
			c-0.04-0.01-0.11-0.01-0.14,0.01c-0.41,0.27-0.83,0.54-1.24,0.81c-0.16,0.11-0.32,0.1-0.46-0.04c-0.41-0.4-0.81-0.81-1.21-1.21
			c-0.15-0.15-0.15-0.32-0.04-0.49c0.27-0.4,0.53-0.81,0.8-1.21c0.04-0.05,0.04-0.1,0.01-0.15c-0.05-0.1-0.08-0.2-0.13-0.3
			c-0.02-0.03-0.06-0.07-0.09-0.08c-0.36-0.08-0.71-0.15-1.07-0.22c-0.15-0.03-0.29-0.06-0.44-0.09c-0.13-0.03-0.22-0.12-0.23-0.26
			c-0.01-0.13-0.01-0.26-0.01-0.39c0-0.47,0-0.93,0-1.4c0-0.23,0.07-0.33,0.3-0.37c0.44-0.1,0.88-0.19,1.33-0.27
			c0.12-0.02,0.22-0.06,0.25-0.2c0.01-0.06,0.04-0.12,0.07-0.17c0.06-0.09,0.04-0.16-0.02-0.25c-0.27-0.4-0.53-0.8-0.79-1.2
			c-0.1-0.15-0.09-0.31,0.04-0.44c0.41-0.41,0.82-0.83,1.24-1.24c0.13-0.13,0.29-0.14,0.45-0.04c0.4,0.26,0.8,0.53,1.2,0.79
			c0.07,0.05,0.14,0.07,0.22,0.02c0.08-0.05,0.18-0.07,0.26-0.12c0.04-0.02,0.08-0.07,0.09-0.11c0.08-0.36,0.15-0.73,0.23-1.1
			c0.03-0.13,0.05-0.27,0.09-0.4c0.03-0.14,0.16-0.23,0.34-0.23c0.5,0,0.99,0,1.49,0c0.06,0,0.12,0,0.18,0
			c0.27,0,0.37,0.08,0.43,0.34c0.09,0.45,0.19,0.9,0.28,1.35c0.02,0.08,0.05,0.14,0.14,0.17c0.1,0.04,0.2,0.09,0.3,0.12
			c0.03,0.01,0.08,0,0.11-0.02c0.32-0.2,0.63-0.41,0.94-0.62c0.09-0.06,0.18-0.12,0.28-0.18c0.19-0.13,0.34-0.12,0.5,0.05
			c0.27,0.27,0.54,0.54,0.81,0.81c0.13,0.13,0.25,0.25,0.38,0.38c0.14,0.15,0.16,0.31,0.05,0.48c-0.26,0.4-0.53,0.8-0.79,1.2
			c-0.05,0.07-0.07,0.13-0.02,0.21c0.05,0.09,0.08,0.19,0.12,0.28c0.02,0.03,0.06,0.07,0.09,0.08c0.25,0.06,0.5,0.11,0.74,0.16
			c0.25,0.05,0.5,0.1,0.74,0.16c0.18,0.04,0.25,0.15,0.25,0.34c0,0.48,0,0.95,0,1.43c0,0.14,0,0.29-0.02,0.43
			c-0.02,0.12-0.1,0.2-0.22,0.22c-0.34,0.07-0.67,0.14-1.01,0.21c-0.16,0.03-0.33,0.06-0.49,0.1c-0.04,0.01-0.08,0.04-0.09,0.08
			c-0.06,0.11-0.11,0.23-0.15,0.34c-0.01,0.03,0,0.08,0.02,0.11c0.27,0.41,0.53,0.81,0.8,1.22c0.12,0.18,0.11,0.35-0.05,0.5
			c-0.38,0.38-0.77,0.77-1.15,1.15C20.23,21.55,20.13,21.61,20,21.63z M14.52,19.91c0.07,0.03,0.14,0.05,0.2,0.08
			c0.2,0.08,0.4,0.18,0.6,0.25c0.17,0.06,0.29,0.15,0.32,0.33c0.02,0.1,0.04,0.19,0.06,0.29c0.07,0.35,0.14,0.7,0.2,1.05
			c0.01,0.07,0.04,0.1,0.12,0.1c0.36,0,0.71,0,1.07,0c0.08,0,0.1-0.04,0.12-0.11c0.07-0.44,0.15-0.89,0.23-1.33
			c0.03-0.16,0.11-0.27,0.28-0.32c0.23-0.07,0.44-0.17,0.66-0.27c0.14-0.06,0.25-0.06,0.38,0.02c0.38,0.25,0.76,0.5,1.13,0.76
			c0.07,0.05,0.11,0.04,0.16-0.02c0.24-0.25,0.49-0.49,0.74-0.74c0.05-0.05,0.05-0.08,0.01-0.14c-0.26-0.38-0.51-0.77-0.77-1.15
			c-0.09-0.14-0.08-0.26-0.01-0.4c0.1-0.18,0.18-0.37,0.24-0.56c0.05-0.16,0.12-0.28,0.29-0.31c0.15-0.03,0.31-0.06,0.46-0.09
			c0.31-0.06,0.62-0.12,0.94-0.18c0.05-0.01,0.08-0.04,0.08-0.09c0-0.37,0-0.74,0-1.11c0-0.05-0.02-0.07-0.07-0.08
			c-0.2-0.04-0.41-0.08-0.61-0.12c-0.28-0.06-0.56-0.11-0.83-0.17c-0.12-0.03-0.19-0.1-0.24-0.22c-0.08-0.21-0.15-0.43-0.25-0.63
			c-0.08-0.16-0.07-0.3,0.03-0.45c0.26-0.38,0.51-0.76,0.76-1.14c0.04-0.05,0.03-0.09-0.01-0.13c-0.25-0.25-0.5-0.5-0.75-0.75
			c-0.05-0.05-0.09-0.06-0.14-0.02c-0.13,0.09-0.27,0.18-0.4,0.27c-0.27,0.18-0.55,0.36-0.82,0.54c-0.09,0.06-0.2,0.05-0.3,0.01
			c-0.22-0.1-0.44-0.19-0.66-0.27c-0.15-0.05-0.24-0.14-0.27-0.29c-0.09-0.46-0.18-0.92-0.27-1.37c-0.01-0.07-0.04-0.1-0.12-0.1
			c-0.33,0-0.66,0-0.99,0c-0.14,0-0.14,0-0.17,0.14c-0.09,0.45-0.17,0.89-0.26,1.34c-0.03,0.15-0.11,0.23-0.26,0.28
			c-0.21,0.07-0.41,0.15-0.61,0.24c-0.16,0.07-0.29,0.07-0.44-0.02c-0.38-0.25-0.76-0.5-1.13-0.76c-0.07-0.05-0.11-0.04-0.16,0.02
			c-0.24,0.24-0.48,0.49-0.72,0.72c-0.06,0.06-0.06,0.1-0.02,0.17c0.26,0.38,0.52,0.77,0.77,1.16c0.07,0.11,0.08,0.22,0.01,0.34
			c-0.13,0.22-0.23,0.46-0.29,0.71c-0.03,0.11-0.11,0.19-0.22,0.22c-0.2,0.05-0.4,0.09-0.61,0.13c-0.28,0.06-0.55,0.11-0.83,0.16
			c-0.07,0.01-0.09,0.04-0.09,0.11c0,0.36,0,0.71,0,1.07c0,0.07,0.03,0.1,0.09,0.11c0.44,0.09,0.89,0.18,1.33,0.26
			c0.13,0.02,0.23,0.08,0.29,0.2c0.1,0.24,0.2,0.48,0.31,0.72c0.06,0.12,0.05,0.23-0.02,0.34c-0.26,0.38-0.51,0.77-0.77,1.15
			c-0.05,0.07-0.04,0.11,0.02,0.16c0.25,0.24,0.49,0.48,0.73,0.73c0.05,0.05,0.09,0.06,0.15,0.01c0.38-0.26,0.76-0.51,1.14-0.76
			C14.38,19.96,14.45,19.94,14.52,19.91z"/>
		<path class="st0" d="M12.52,3.94c-0.02,0.04-0.03,0.1-0.06,0.15c-0.27,0.42-0.55,0.84-0.83,1.26c-0.03,0.05-0.04,0.1-0.02,0.15
			c0.05,0.1,0.09,0.21,0.14,0.31c0.02,0.03,0.05,0.07,0.09,0.07c0.49,0.1,0.98,0.21,1.46,0.31c0.18,0.04,0.28,0.15,0.29,0.34
			c0,0.58,0,1.16,0,1.74c0,0.2-0.1,0.32-0.3,0.36c-0.48,0.1-0.97,0.2-1.45,0.3c-0.03,0.01-0.07,0.04-0.09,0.07
			c-0.05,0.1-0.09,0.21-0.14,0.31c-0.03,0.06-0.02,0.1,0.02,0.15c0.29,0.41,0.57,0.83,0.86,1.24c0.12,0.17,0.11,0.35-0.04,0.5
			c-0.39,0.4-0.79,0.79-1.19,1.19c-0.15,0.15-0.32,0.17-0.5,0.05c-0.39-0.26-0.78-0.52-1.17-0.78c-0.08-0.05-0.14-0.07-0.23-0.03
			c-0.08,0.05-0.18,0.07-0.26,0.12c-0.04,0.02-0.08,0.07-0.09,0.11C8.93,12.25,8.85,12.62,8.77,13c-0.03,0.13-0.05,0.25-0.08,0.38
			c-0.04,0.14-0.15,0.23-0.32,0.23c-0.3,0-0.61,0-0.91,0c-0.27,0-0.54,0-0.81,0c-0.23,0-0.33-0.07-0.38-0.29
			C6.2,13,6.14,12.69,6.07,12.38c-0.03-0.17-0.07-0.33-0.1-0.5c-0.01-0.06-0.04-0.1-0.1-0.12c-0.11-0.04-0.22-0.1-0.33-0.14
			c-0.04-0.01-0.09,0.01-0.13,0.03c-0.35,0.23-0.7,0.46-1.05,0.69c-0.06,0.04-0.12,0.08-0.18,0.12c-0.14,0.09-0.31,0.08-0.43-0.04
			c-0.41-0.41-0.83-0.82-1.24-1.24c-0.14-0.14-0.14-0.31-0.04-0.47c0.26-0.4,0.53-0.8,0.79-1.2c0.04-0.06,0.06-0.12,0.02-0.2
			c-0.05-0.09-0.08-0.2-0.13-0.3C3.14,9.01,3.11,8.98,3.08,8.97c-0.25-0.06-0.5-0.11-0.75-0.16C2.07,8.75,1.81,8.7,1.55,8.64
			C1.41,8.6,1.33,8.49,1.33,8.35c0-0.58,0-1.16,0-1.73c0-0.23,0.09-0.32,0.34-0.37c0.45-0.09,0.89-0.18,1.34-0.27
			C3.1,5.95,3.16,5.91,3.19,5.82c0.03-0.08,0.06-0.17,0.1-0.24c0.04-0.07,0.03-0.13-0.02-0.19C3.01,5,2.75,4.6,2.49,4.2
			c-0.13-0.2-0.11-0.35,0.06-0.52C2.93,3.3,3.31,2.92,3.68,2.54C3.79,2.43,3.91,2.36,4.07,2.4C4.12,2.41,4.16,2.44,4.2,2.46
			c0.38,0.26,0.76,0.53,1.14,0.79c0.07,0.05,0.12,0.06,0.2,0.02c0.09-0.05,0.2-0.08,0.29-0.13C5.86,3.13,5.89,3.09,5.9,3.06
			C6,2.58,6.1,2.09,6.2,1.6c0.04-0.19,0.15-0.29,0.36-0.29c0.51,0,1.02,0,1.52,0c0.07,0,0.15,0,0.22,0c0.19,0,0.3,0.1,0.34,0.29
			c0.1,0.49,0.2,0.97,0.3,1.46c0.01,0.03,0.03,0.07,0.06,0.08C9.13,3.2,9.25,3.25,9.37,3.29C9.4,3.31,9.46,3.28,9.49,3.26
			c0.4-0.28,0.8-0.56,1.2-0.85c0.19-0.13,0.34-0.13,0.51,0.04c0.4,0.4,0.8,0.8,1.19,1.19C12.46,3.72,12.5,3.81,12.52,3.94z
			 M10.9,11.72c0.02-0.02,0.05-0.04,0.07-0.06c0.25-0.25,0.49-0.5,0.74-0.74c0.06-0.05,0.05-0.09,0.01-0.16
			c-0.26-0.38-0.51-0.77-0.77-1.15c-0.08-0.12-0.09-0.24-0.01-0.36c0.13-0.21,0.22-0.43,0.28-0.66c0.03-0.12,0.11-0.19,0.22-0.22
			c0.14-0.04,0.28-0.06,0.42-0.09c0.34-0.07,0.69-0.14,1.03-0.2c0.05-0.01,0.08-0.03,0.08-0.09c0-0.37,0-0.74,0-1.11
			c0-0.03-0.04-0.08-0.07-0.09c-0.46-0.09-0.92-0.18-1.37-0.27c-0.14-0.03-0.26-0.09-0.3-0.24c-0.06-0.24-0.16-0.47-0.28-0.69
			c-0.08-0.13-0.08-0.25,0.01-0.38c0.26-0.38,0.51-0.77,0.77-1.15c0.03-0.05,0.05-0.08,0-0.13c-0.25-0.25-0.5-0.5-0.75-0.76
			c-0.05-0.05-0.09-0.05-0.15-0.01c-0.39,0.27-0.79,0.53-1.19,0.79C9.53,4.04,9.42,4.05,9.3,3.99C9.06,3.89,8.82,3.79,8.58,3.7
			C8.49,3.66,8.43,3.6,8.4,3.51C8.38,3.45,8.37,3.39,8.35,3.33C8.27,2.9,8.18,2.47,8.1,2.04C8.09,1.98,8.06,1.96,8,1.96
			c-0.36,0-0.72,0-1.09,0c-0.06,0-0.09,0.03-0.11,0.09C6.72,2.51,6.63,2.97,6.54,3.42c-0.03,0.14-0.1,0.24-0.25,0.29
			C6.08,3.78,5.87,3.87,5.66,3.96C5.51,4.03,5.37,4.03,5.23,3.94C4.85,3.68,4.47,3.43,4.09,3.17c-0.06-0.04-0.1-0.03-0.15,0.02
			C3.7,3.44,3.45,3.68,3.21,3.93C3.15,3.98,3.15,4.02,3.19,4.08c0.27,0.38,0.53,0.76,0.79,1.14c0.08,0.11,0.09,0.22,0.03,0.35
			C3.91,5.8,3.81,6.03,3.73,6.27C3.68,6.42,3.58,6.5,3.43,6.53C2.98,6.62,2.52,6.7,2.06,6.79C2.01,6.8,1.98,6.83,1.98,6.89
			c0,0.37,0,0.74,0,1.1c0,0.05,0.02,0.08,0.07,0.09c0.2,0.04,0.41,0.08,0.61,0.12C2.93,8.26,3.2,8.32,3.46,8.37
			C3.57,8.4,3.64,8.46,3.68,8.57c0.09,0.23,0.18,0.45,0.29,0.67c0.07,0.15,0.06,0.28-0.03,0.42c-0.25,0.37-0.5,0.75-0.75,1.12
			c-0.04,0.06-0.03,0.09,0.01,0.14c0.25,0.24,0.49,0.48,0.73,0.73c0.06,0.07,0.11,0.06,0.18,0.01c0.39-0.27,0.79-0.53,1.18-0.8
			c0.1-0.07,0.2-0.07,0.3-0.02c0.22,0.12,0.44,0.22,0.68,0.28c0.14,0.04,0.23,0.14,0.26,0.29c0.09,0.46,0.18,0.91,0.26,1.37
			c0.01,0.07,0.04,0.1,0.12,0.1c0.36,0,0.72,0,1.08,0c0.07,0,0.09-0.02,0.1-0.09c0.08-0.43,0.17-0.86,0.25-1.29
			c0.03-0.18,0.1-0.32,0.29-0.39c0.21-0.07,0.41-0.16,0.61-0.25c0.15-0.07,0.28-0.07,0.41,0.02c0.38,0.25,0.76,0.51,1.14,0.76
			C10.83,11.68,10.86,11.7,10.9,11.72z"/>
		<path class="st0" d="M15.84,2.99c0.07,0.03,0.14,0.05,0.2,0.09c0.21,0.14,0.41,0.28,0.62,0.42c0.09,0.06,0.19,0.02,0.21-0.09
			c0.04-0.25,0.08-0.51,0.12-0.76c0.03-0.16,0.15-0.27,0.33-0.27c0.34,0,0.69,0,1.03,0c0.18,0,0.29,0.1,0.32,0.29
			c0.04,0.23,0.09,0.45,0.13,0.68c0.01,0.03,0.01,0.06,0.02,0.08c0.03,0.09,0.12,0.12,0.2,0.07c0.21-0.14,0.42-0.29,0.63-0.43
			c0.15-0.1,0.3-0.1,0.43,0.02c0.26,0.23,0.52,0.46,0.77,0.7c0.13,0.12,0.13,0.3,0.03,0.46c-0.14,0.2-0.27,0.4-0.41,0.6
			c-0.08,0.12-0.04,0.2,0.1,0.23c0.26,0.05,0.52,0.1,0.77,0.16c0.14,0.03,0.23,0.14,0.24,0.29c0,0.36,0.01,0.72,0,1.08
			c0,0.16-0.11,0.28-0.27,0.31c-0.25,0.05-0.49,0.09-0.74,0.14c-0.13,0.02-0.17,0.12-0.1,0.22c0.13,0.2,0.26,0.4,0.41,0.59
			c0.11,0.15,0.1,0.36-0.04,0.5c-0.23,0.22-0.45,0.45-0.68,0.67C20,9.19,19.83,9.2,19.66,9.08c-0.2-0.14-0.4-0.27-0.6-0.41
			c-0.1-0.06-0.19-0.03-0.22,0.09C18.79,9,18.75,9.24,18.7,9.48c-0.04,0.2-0.15,0.3-0.35,0.3c-0.34,0-0.67,0-1.01,0
			c-0.17,0-0.29-0.09-0.32-0.25c-0.06-0.26-0.1-0.51-0.16-0.77c-0.03-0.13-0.12-0.16-0.22-0.08c-0.2,0.14-0.4,0.28-0.61,0.41
			c-0.15,0.11-0.33,0.09-0.46-0.04c-0.23-0.23-0.47-0.46-0.69-0.69c-0.13-0.13-0.17-0.3-0.05-0.47c0.14-0.2,0.28-0.4,0.41-0.61
			c0.08-0.11,0.04-0.21-0.09-0.23C14.9,7,14.66,6.96,14.41,6.91c-0.16-0.03-0.27-0.14-0.27-0.31c0-0.35-0.01-0.7,0-1.05
			c0-0.19,0.09-0.29,0.28-0.33c0.24-0.04,0.48-0.08,0.72-0.11c0.14-0.02,0.19-0.11,0.11-0.23c-0.14-0.2-0.28-0.41-0.42-0.61
			c-0.11-0.16-0.09-0.32,0.05-0.46c0.22-0.22,0.44-0.44,0.65-0.66C15.61,3.07,15.7,3,15.84,2.99z M15.89,3.75
			c-0.02,0.02-0.05,0.03-0.07,0.05c-0.07,0.07-0.14,0.15-0.22,0.22c-0.06,0.05-0.06,0.1-0.02,0.16c0.12,0.18,0.24,0.36,0.35,0.54
			c0.07,0.11,0.09,0.22,0.03,0.35c-0.05,0.1-0.1,0.21-0.13,0.32c-0.04,0.13-0.12,0.21-0.25,0.24c-0.23,0.05-0.45,0.11-0.68,0.15
			c-0.06,0.01-0.08,0.03-0.08,0.09c0,0.12,0,0.23,0,0.35c0,0.07,0.03,0.1,0.09,0.11c0.21,0.04,0.41,0.1,0.62,0.13
			c0.13,0.02,0.2,0.1,0.24,0.21c0.05,0.13,0.1,0.27,0.16,0.39c0.07,0.14,0.06,0.26-0.02,0.39C15.8,7.64,15.69,7.82,15.57,8
			c-0.03,0.05-0.04,0.09,0.01,0.14c0.08,0.08,0.16,0.16,0.24,0.24c0.04,0.04,0.07,0.05,0.12,0.01c0.17-0.13,0.35-0.26,0.53-0.39
			c0.1-0.07,0.2-0.08,0.3-0.03c0.11,0.05,0.22,0.11,0.34,0.14c0.17,0.05,0.26,0.15,0.3,0.33c0.04,0.21,0.09,0.42,0.14,0.62
			c0.01,0.03,0.06,0.07,0.09,0.07c0.12,0.01,0.24,0,0.37,0.01c0.06,0,0.08-0.03,0.1-0.08c0.04-0.21,0.09-0.42,0.13-0.63
			c0.03-0.13,0.09-0.24,0.23-0.29c0.12-0.04,0.24-0.1,0.36-0.15c0.13-0.06,0.24-0.05,0.36,0.03c0.19,0.12,0.38,0.24,0.57,0.37
			c0.05,0.03,0.08,0.03,0.12-0.01c0.07-0.08,0.13-0.15,0.21-0.23c0.05-0.05,0.05-0.09,0.01-0.15c-0.12-0.18-0.23-0.36-0.35-0.53
			c-0.08-0.11-0.09-0.23-0.02-0.35c0.06-0.12,0.12-0.25,0.16-0.38c0.05-0.15,0.15-0.22,0.3-0.24c0.22-0.04,0.44-0.08,0.66-0.11
			c0.06-0.01,0.08-0.04,0.08-0.09c0-0.1,0-0.19,0-0.29c0-0.15,0-0.15-0.15-0.18c-0.2-0.04-0.4-0.09-0.61-0.13
			c-0.12-0.03-0.2-0.09-0.25-0.21c-0.05-0.14-0.12-0.28-0.18-0.43c-0.04-0.1-0.04-0.19,0.01-0.29c0.12-0.2,0.25-0.39,0.38-0.59
			c0.03-0.05,0.03-0.09-0.02-0.13c-0.07-0.07-0.15-0.14-0.22-0.22c-0.06-0.07-0.1-0.07-0.18-0.02c-0.2,0.13-0.39,0.26-0.6,0.38
			c-0.09,0.06-0.19,0.05-0.29,0c-0.12-0.06-0.24-0.1-0.36-0.15c-0.11-0.04-0.16-0.11-0.18-0.23c-0.04-0.24-0.1-0.47-0.15-0.71
			c-0.01-0.03-0.06-0.06-0.09-0.06c-0.11-0.01-0.23,0-0.34,0c-0.07,0-0.1,0.02-0.12,0.09c-0.05,0.23-0.1,0.45-0.15,0.67
			c-0.03,0.12-0.1,0.2-0.22,0.24c-0.11,0.04-0.22,0.08-0.32,0.13c-0.15,0.07-0.29,0.07-0.43-0.03c-0.17-0.12-0.35-0.23-0.52-0.34
			C15.94,3.78,15.92,3.77,15.89,3.75z"/>
		<path class="st0" d="M8.97,16.05c-0.03,0.06-0.05,0.13-0.09,0.19c-0.14,0.21-0.28,0.41-0.42,0.62c-0.07,0.11-0.04,0.2,0.1,0.23
			c0.24,0.05,0.49,0.09,0.73,0.14c0.19,0.04,0.3,0.18,0.3,0.37c0,0.31,0,0.61,0,0.92c0,0.22-0.07,0.32-0.28,0.37
			c-0.24,0.06-0.49,0.1-0.74,0.15c-0.12,0.02-0.16,0.11-0.09,0.21c0.14,0.21,0.28,0.41,0.42,0.62c0.11,0.16,0.09,0.32-0.04,0.45
			c-0.23,0.24-0.47,0.47-0.71,0.7c-0.12,0.11-0.29,0.17-0.48,0.03c-0.2-0.15-0.4-0.28-0.61-0.41c-0.1-0.07-0.19-0.03-0.21,0.09
			c-0.05,0.26-0.1,0.51-0.16,0.77c-0.03,0.14-0.13,0.24-0.28,0.24c-0.37,0.01-0.74,0.01-1.1,0c-0.15,0-0.26-0.1-0.29-0.25
			C5,21.25,4.95,21.01,4.91,20.77c-0.03-0.17-0.12-0.21-0.25-0.11c-0.19,0.13-0.38,0.26-0.57,0.39c-0.18,0.12-0.34,0.11-0.5-0.04
			c-0.22-0.21-0.44-0.42-0.66-0.63c-0.17-0.16-0.18-0.32-0.05-0.51c0.14-0.2,0.27-0.4,0.41-0.6c0.06-0.1,0.01-0.22-0.11-0.24
			c-0.25-0.04-0.5-0.08-0.74-0.12c-0.15-0.02-0.26-0.13-0.26-0.28c-0.01-0.37-0.01-0.74,0-1.11c0-0.14,0.11-0.26,0.25-0.28
			c0.23-0.05,0.47-0.09,0.7-0.14c0.05-0.01,0.11-0.03,0.15-0.06c0.05-0.05,0.05-0.12,0-0.19C3.13,16.64,3,16.44,2.86,16.24
			c-0.11-0.16-0.1-0.33,0.04-0.47c0.23-0.23,0.45-0.45,0.68-0.68c0.16-0.16,0.32-0.17,0.5-0.04c0.19,0.13,0.38,0.26,0.58,0.4
			c0.12,0.09,0.22,0.04,0.24-0.11c0.03-0.23,0.07-0.45,0.1-0.68c0.03-0.22,0.15-0.32,0.37-0.32c0.32,0,0.64,0,0.95,0
			c0.25,0,0.35,0.12,0.39,0.33c0.04,0.24,0.09,0.48,0.14,0.71c0.02,0.09,0.12,0.13,0.19,0.08c0.21-0.14,0.41-0.28,0.62-0.42
			c0.19-0.13,0.34-0.12,0.5,0.04c0.22,0.22,0.43,0.43,0.65,0.65C8.91,15.85,8.95,15.93,8.97,16.05z M7.07,19.91
			c0.06,0.02,0.12,0.04,0.18,0.08c0.18,0.11,0.36,0.23,0.54,0.35c0.07,0.04,0.11,0.03,0.15-0.02c0.06-0.08,0.13-0.15,0.2-0.22
			c0.04-0.04,0.04-0.08,0.01-0.13c-0.12-0.18-0.24-0.37-0.36-0.56c-0.08-0.12-0.08-0.23-0.01-0.35c0.06-0.12,0.11-0.25,0.16-0.38
			c0.04-0.1,0.1-0.18,0.21-0.21c0.27-0.06,0.55-0.12,0.82-0.18c0.06-0.01,0.08-0.04,0.08-0.09c0-0.1,0-0.2,0-0.31
			c0-0.07-0.03-0.1-0.1-0.12c-0.21-0.04-0.43-0.09-0.64-0.14c-0.13-0.03-0.23-0.11-0.27-0.24c-0.04-0.12-0.09-0.24-0.15-0.35
			c-0.08-0.14-0.06-0.27,0.03-0.4c0.12-0.17,0.23-0.35,0.34-0.53c0.03-0.04,0.03-0.07-0.01-0.11c-0.09-0.08-0.17-0.17-0.25-0.25
			c-0.04-0.04-0.08-0.04-0.13-0.01C7.66,15.88,7.47,16,7.27,16.13c-0.11,0.07-0.22,0.09-0.34,0.02C6.82,16.09,6.7,16.04,6.57,16
			c-0.14-0.05-0.21-0.15-0.24-0.29c-0.05-0.21-0.09-0.43-0.14-0.64c-0.01-0.06-0.04-0.08-0.1-0.08c-0.12,0-0.25,0-0.37,0
			c-0.05,0-0.08,0.02-0.09,0.07c-0.04,0.21-0.09,0.43-0.14,0.64c-0.03,0.14-0.1,0.26-0.26,0.3c-0.1,0.03-0.2,0.07-0.29,0.12
			C4.8,16.2,4.65,16.19,4.5,16.09c-0.17-0.12-0.35-0.23-0.53-0.35c-0.04-0.03-0.08-0.03-0.11,0.01C3.78,15.84,3.7,15.92,3.62,16
			c-0.05,0.04-0.04,0.08-0.01,0.13c0.13,0.19,0.25,0.39,0.38,0.59C4.04,16.81,4.04,16.91,4,17c-0.09,0.17-0.18,0.34-0.29,0.51
			c-0.03,0.05-0.09,0.09-0.14,0.11c-0.24,0.06-0.47,0.12-0.71,0.17c-0.08,0.02-0.11,0.05-0.1,0.12c0,0.1,0,0.21,0,0.32
			c0,0.05,0.02,0.08,0.07,0.09c0.24,0.05,0.47,0.1,0.71,0.16c0.11,0.03,0.18,0.1,0.22,0.2c0.05,0.13,0.1,0.27,0.16,0.39
			c0.06,0.12,0.06,0.24-0.02,0.35c-0.12,0.18-0.23,0.36-0.35,0.53c-0.04,0.06-0.05,0.11,0.01,0.16c0.08,0.06,0.15,0.14,0.22,0.21
			c0.05,0.05,0.09,0.06,0.15,0.02c0.18-0.12,0.36-0.23,0.53-0.35c0.11-0.07,0.23-0.09,0.35-0.02c0.11,0.06,0.23,0.1,0.34,0.15
			c0.15,0.06,0.25,0.15,0.28,0.31c0.04,0.2,0.09,0.4,0.13,0.6c0.02,0.08,0.05,0.12,0.14,0.11c0.1-0.01,0.2-0.01,0.3,0
			c0.07,0,0.11-0.01,0.13-0.09c0.03-0.17,0.08-0.35,0.11-0.52c0.04-0.18,0.1-0.34,0.3-0.4c0.13-0.04,0.25-0.1,0.37-0.16
			C6.96,19.94,7.01,19.93,7.07,19.91z"/>
		<path class="st0" d="M16.54,19.16c-1.43,0-2.6-1.14-2.6-2.6c-0.01-1.47,1.16-2.64,2.62-2.64c1.46,0.01,2.64,1.22,2.62,2.67
			C19.15,18,18,19.18,16.54,19.16z M18.53,16.54c0-1.1-0.88-1.99-2.02-1.97c-1.09,0.03-1.93,0.89-1.92,1.99
			c0.01,1.12,0.9,1.97,2.03,1.95C17.67,18.5,18.55,17.59,18.53,16.54z"/>
		<path class="st0" d="M4.82,7.41C4.82,5.98,5.99,4.8,7.45,4.81c1.44,0.01,2.61,1.17,2.61,2.61c0,1.48-1.17,2.64-2.65,2.63
			C5.98,10.03,4.81,8.84,4.82,7.41z M5.47,7.43c0,1.08,0.86,2,2.03,1.97c1.07-0.03,1.89-0.85,1.91-1.92
			c0.03-1.16-0.89-2.03-1.98-2.03C6.35,5.46,5.47,6.35,5.47,7.43z"/>
		<path class="st0" d="M17.85,7.75c-0.92,0-1.64-0.72-1.64-1.64c0-0.9,0.74-1.65,1.63-1.65c0.93,0,1.68,0.74,1.67,1.66
			C19.49,7.03,18.74,7.75,17.85,7.75z M16.85,6.05c-0.01,0.56,0.44,1.01,0.99,1.02c0.54,0.01,1-0.44,1.01-0.99
			c0.01-0.54-0.44-1-0.99-1.01C17.3,5.06,16.86,5.49,16.85,6.05z"/>
		<path class="st0" d="M5.88,19.68c-0.9,0-1.65-0.74-1.65-1.64c0-0.91,0.74-1.65,1.65-1.66c0.9,0,1.64,0.74,1.64,1.65
			C7.54,18.94,6.8,19.68,5.88,19.68z M6.89,18.07c0.01-0.54-0.45-1.01-0.98-1.01c-0.55,0-1.02,0.44-1.02,1c0,0.57,0.45,1,0.99,1.01
			C6.43,19.07,6.88,18.62,6.89,18.07z"/>
	</g>
</g>
</svg>
